<svg height="459pt" viewBox="-34 0 459 459.042" width="459pt" xmlns="http://www.w3.org/2000/svg"><path d="m195.957031 51.445312c-77.6875 0-140.894531 63.199219-140.894531 140.890626 0 77.695312 63.207031 140.894531 140.894531 140.894531s140.890625-63.199219 140.890625-140.894531c0-77.691407-63.203125-140.890626-140.890625-140.890626zm109.9375 157.777344c-.011719 27.132813-21.9375 49.160156-49.070312 49.296875h-121.734375c-27.132813-.136719-49.058594-22.164062-49.070313-49.296875 0-.074218 0-.324218 0-.402344 0-.074218 0-.167968 0-.242187-.027343-28.257813 19.78125-52.65625 47.445313-58.433594 10.773437-29.203125 40.171875-47.199219 71.074218-43.511719 30.90625 3.6875 55.246094 28.09375 58.847657 59.011719 23.039062.542969 41.640625 18.988281 42.378906 42.027344.085937.511719.128906 1.03125.128906 1.550781zm0 0"/><path d="m262.585938 181.640625c-1.742188-.046875-3.484376.074219-5.203126.351563-2.382812.476562-4.855468-.160157-6.71875-1.726563-1.859374-1.566406-2.90625-3.894531-2.84375-6.324219 0-.183594 0-.375 0-.558594-.003906-25.578124-18.859374-47.238281-44.195312-50.765624-25.332031-3.53125-49.390625 12.152343-56.382812 36.757812-.882813 3.121094-3.550782 5.40625-6.769532 5.800781-21.933594 2.648438-38.4375 21.253907-38.453125 43.34375 0 0 .003907.320313.007813.4375v.601563c.160156 18.175781 14.886718 32.855468 33.0625 32.960937h121.734375c17.84375-.125 32.421875-14.296875 33.046875-32.132812-.054688-.445313-.082032-.894531-.082032-1.34375.027344-15.066407-12.136718-27.320313-27.203124-27.402344zm0 0"/><path d="m195.957031 0c-108.039062 0-195.9374998 83.871094-195.9374998 186.964844 0 33.054687 10.3359378 67.957031 30.7382808 103.738281 16.53125 29 39.644532 58.609375 68.699219 87.992187 29.609375 29.710938 61.914063 56.609376 96.5 80.347657 34.582031-23.738281 66.890625-50.636719 96.5-80.347657 29.054688-29.382812 52.167969-58.992187 68.699219-87.992187 20.398438-35.78125 30.734375-70.683594 30.734375-103.738281 0-103.09375-87.894531-186.964844-195.933594-186.964844zm0 349.230469c-86.511719 0-156.894531-70.382813-156.894531-156.894531 0-86.511719 70.382812-156.890626 156.894531-156.890626s156.890625 70.378907 156.890625 156.890626c0 86.511718-70.378906 156.894531-156.890625 156.894531zm0 0"/></svg>