<svg width="52" height="52" viewBox="0 0 52 52" fill="none" xmlns="http://www.w3.org/2000/svg">
<path d="M51.9598 40.4958C51.952 40.4716 51.939 40.449 51.9294 40.4248C51.9005 40.3514 51.8617 40.2823 51.8142 40.2194C51.8038 40.2056 51.8012 40.1882 51.7891 40.1743C51.7769 40.1604 51.7613 40.1552 51.7484 40.1432C51.7354 40.1311 51.7163 40.099 51.6954 40.0808L45.6297 34.8816C45.3965 34.6662 45.0644 34.5955 44.7638 34.6972C44.4632 34.799 44.2422 35.057 44.1879 35.3697C44.1336 35.6824 44.2545 35.9998 44.5032 36.197L48.7909 39.8686H30.2468C29.8962 38.1683 28.5676 36.8396 26.8673 36.4891V34.6693C27.9253 34.6693 28.9548 34.6312 29.9487 34.555C32.4903 34.3531 35.1394 33.9674 37.2971 32.5255C39.2607 31.2041 40.3673 28.7353 40.33 25.7544C40.2221 22.5745 39.4805 19.4483 38.1489 16.5586C39.0592 15.6382 39.5552 14.3866 39.5224 13.0925C39.8152 11.7623 40.8845 11.1099 42.6783 11.1359C43.2034 11.139 43.6918 10.8672 43.966 10.4192C44.2557 9.94571 44.2741 9.3545 44.0146 8.86382C43.3347 7.48998 42.0847 6.48496 40.597 6.11603C41.5089 4.82526 41.2578 3.04756 40.0241 2.0597C39.3087 1.48128 38.3653 1.26742 37.4704 1.48087C37.06 0.560441 36.1368 -0.0231556 35.1293 0.00101287C34.1219 0.0252829 33.2277 0.652647 32.8621 1.59176C31.8836 1.22812 30.786 1.40654 29.9731 2.06142C29.3097 2.59617 28.9042 3.38723 28.8573 4.238C28.8104 5.08877 29.1264 5.91964 29.727 6.52405L30.1802 6.9799C28.0597 9.18959 27.1117 13.1532 26.7062 15.7918C26.6122 16.3915 26.2457 16.9137 25.7138 17.2061C25.1819 17.4985 24.5445 17.5278 23.9879 17.2857C23.2539 16.9398 22.796 16.1903 22.8232 15.3793V12.9461C22.7382 9.96785 21.7464 7.08643 19.9801 4.68705C19.2691 3.66883 18.1067 3.06066 16.8649 3.0571C16.5578 3.05639 16.2518 3.09417 15.9541 3.16972C14.2176 3.60434 13.0226 5.1955 13.0893 6.98427C12.5486 6.77833 11.9677 6.70004 11.3918 6.75548C9.98958 6.9013 8.78339 7.81107 8.25758 9.11901C7.73186 10.427 7.97283 11.9185 8.88382 12.9943L8.13084 14.9119C7.3605 16.9204 8.02523 19.1961 9.75561 20.4742L9.59963 21.2585C9.24147 23.0572 9.60969 24.9245 10.6238 26.4526C11.8795 28.3532 13.4298 30.042 15.2166 31.4551C16.3151 32.3146 17.5229 33.0244 18.8084 33.566C20.299 34.1526 21.8776 34.4845 23.4782 34.5478C24.0357 34.5871 24.5868 34.6159 25.1316 34.6344V36.4888C23.4323 36.8402 22.1048 38.1687 21.7547 39.8683H14.2279L11.0156 36.656C10.935 36.5757 10.8392 36.5121 10.734 36.4688C10.629 36.4253 10.5166 36.4026 10.403 36.4021H0.870973C0.520531 36.4022 0.204615 36.6134 0.0705718 36.9371C-0.0634715 37.2608 0.010557 37.6335 0.258334 37.8813L3.11183 40.7348L0.258334 43.5883C0.0103539 43.8361 -0.0638777 44.2089 0.0702672 44.5328C0.204514 44.8565 0.520531 45.0675 0.870973 45.0674H10.403C10.5166 45.0669 10.629 45.0442 10.734 45.0007C10.8392 44.9575 10.935 44.8938 11.0156 44.8136L14.2279 41.6013H21.7547C22.1053 43.3016 23.4339 44.6303 25.1342 44.9808V51.1333C25.1342 51.6119 25.5222 51.9998 26.0008 51.9998C26.4793 51.9998 26.8673 51.6119 26.8673 51.1333V44.9808C28.5676 44.6303 29.8962 43.3016 30.2468 41.6013H48.7908L44.5031 45.2763C44.2544 45.4735 44.1335 45.7909 44.1878 46.1036C44.2421 46.4163 44.4631 46.6743 44.7637 46.7761C45.0643 46.8778 45.3965 46.8072 45.6296 46.5918L51.6953 41.3925C51.711 41.3795 51.717 41.3604 51.7317 41.3466C51.7845 41.2949 51.8305 41.2366 51.8686 41.1733C51.8866 41.1452 51.903 41.1163 51.9179 41.0866C51.9248 41.0693 51.9378 41.0563 51.9439 41.039C51.9636 40.9792 51.9761 40.9173 51.9812 40.8544C51.9812 40.8336 51.9925 40.8145 51.9942 40.7938C51.9999 40.6932 51.9882 40.5925 51.9598 40.4958ZM10.0442 43.3346H2.96276L4.94975 41.3476C5.28801 41.0093 5.28801 40.4607 4.94975 40.1223L2.96276 38.1354H10.0441L12.6437 40.735L10.0442 43.3346ZM23.6013 32.8191C22.1873 32.7668 20.7923 32.4777 19.474 31.9639C18.3306 31.4831 17.2566 30.8522 16.2799 30.0878C14.6386 28.7864 13.2147 27.2323 12.0616 25.4838C11.3038 24.3393 11.0299 22.9414 11.2999 21.5956L11.3249 21.4683L12.8916 22.4051C13.2991 22.6242 13.807 22.4846 14.0451 22.0878C14.2832 21.6911 14.1676 21.1772 13.7824 20.9207L11.0961 19.3114C9.78486 18.5563 9.21487 16.9615 9.75043 15.5463L10.3258 14.0731L13.6187 15.73C14.0463 15.9454 14.5676 15.7733 14.7829 15.3456C14.9983 14.918 14.8262 14.3968 14.3986 14.1815L10.8622 12.4086C10.3132 12.1289 9.91575 11.6213 9.77602 11.0212C9.63629 10.4212 9.76871 9.79014 10.1377 9.29682C10.4791 8.8359 10.9982 8.53917 11.5686 8.47906C12.1391 8.41894 12.7086 8.60081 13.1386 8.9805L13.9626 9.70667C14.0298 9.79339 14.113 9.86641 14.2079 9.92155L16.0961 11.5844C16.4564 11.8869 16.9922 11.8466 17.3033 11.4936C17.6143 11.1406 17.587 10.6041 17.2416 10.2846L15.3517 8.62082L15.0684 7.8721C15.058 7.84438 15.0468 7.81838 15.0338 7.79147C14.7492 7.22575 14.7387 6.56092 15.0051 5.98646C15.2653 5.41535 15.7726 4.99484 16.3821 4.84526C17.2109 4.6574 18.0713 4.9858 18.5641 5.67806C20.1249 7.78782 21.0065 10.3228 21.0918 12.9457V15.3799C21.0687 16.8926 21.95 18.2734 23.3319 18.8894C23.7908 19.078 24.282 19.1754 24.7781 19.1762C26.5946 19.1762 28.1398 17.8517 28.4176 16.0567C28.8102 13.5029 30.0804 7.51861 33.3959 7.10003C33.8708 7.04043 34.2077 6.60712 34.1481 6.13208C34.0884 5.65714 33.6551 5.3203 33.1801 5.37991C32.6118 5.45384 32.0623 5.63307 31.5597 5.90847L30.9531 5.30192C30.6993 5.04562 30.5658 4.69385 30.5859 4.33366C30.6059 3.97347 30.7774 3.63867 31.058 3.41201C31.5551 3.01181 32.2744 3.05223 32.7235 3.50564L33.3821 4.16763C33.7211 4.49715 34.2617 4.49401 34.597 4.16062C34.9322 3.82724 34.9384 3.2867 34.6108 2.94581L34.3665 2.69366C34.3665 2.67457 34.3778 2.65903 34.3778 2.63994C34.3588 2.24614 34.6037 1.88767 34.9774 1.76216C35.2516 1.69311 35.5419 1.77272 35.7426 1.97186C35.8576 2.09514 35.9307 2.25162 35.9514 2.41897C35.7177 2.75723 35.7577 3.21399 36.0468 3.50645C36.3852 3.84471 36.9337 3.84471 37.2721 3.50645C37.5928 3.19003 38.058 3.06878 38.4924 3.1884C38.9267 3.30793 39.2643 3.65014 39.378 4.08619C39.4916 4.52214 39.3641 4.9856 39.0433 5.30202L38.051 6.29943C38.0285 6.32279 38.019 6.35315 37.9991 6.37833C37.9616 6.42383 37.9291 6.47328 37.902 6.52568C37.8776 6.57412 37.8581 6.62499 37.8439 6.67729C37.8289 6.72969 37.8187 6.78331 37.8135 6.83763C37.8094 6.89541 37.8111 6.9535 37.8187 7.01098C37.817 7.04246 37.817 7.07394 37.8187 7.10542C37.8239 7.12796 37.8395 7.1435 37.8464 7.16523C37.8648 7.22047 37.889 7.27358 37.9183 7.32385C37.9449 7.37452 37.9769 7.42214 38.0137 7.46591C38.0284 7.48328 38.0345 7.50582 38.0509 7.52227C38.0785 7.54228 38.1075 7.56025 38.1376 7.57599C38.1809 7.61184 38.2279 7.64291 38.2779 7.6687C38.3291 7.6946 38.3828 7.71531 38.4383 7.73024C38.4878 7.74446 38.5386 7.75431 38.5899 7.75969C38.6159 7.75969 38.6401 7.77441 38.6661 7.77441C38.7009 7.76995 38.7353 7.76335 38.7693 7.75451C38.8008 7.75624 38.8323 7.75624 38.8637 7.75451C40.2517 7.52298 41.6364 8.18345 42.3299 9.40792C39.8906 9.47981 38.2571 10.6904 37.8239 12.7693C37.8223 12.7981 37.8223 12.827 37.8239 12.8559C37.8162 12.8844 37.8101 12.9134 37.8057 12.9425C37.8057 14.4382 37.1237 15.4295 36.6731 15.4295C36.2226 15.4295 35.5328 14.4417 35.5328 12.946C35.5328 11.4503 36.2148 10.4599 36.6662 10.4599C37.1448 10.4599 37.5327 10.0719 37.5327 9.59334C37.5327 9.11475 37.1448 8.72683 36.6662 8.72683C35.0588 8.72683 33.7997 10.5795 33.7997 12.9461C33.7997 15.2364 34.9826 17.0309 36.5154 17.1445C37.7804 19.8521 38.4891 22.7861 38.5995 25.7726C38.6125 26.8991 38.4175 29.6807 36.3309 31.0854C34.506 32.3055 32.1195 32.6452 29.8145 32.8262C27.7459 32.9736 25.6694 32.9713 23.6013 32.8191ZM26.0007 43.3346C24.565 43.3346 23.401 42.1707 23.401 40.735C23.401 39.2993 24.5649 38.1354 26.0007 38.1354C27.4363 38.1354 28.6003 39.2993 28.6003 40.735C28.6004 42.1707 27.4364 43.3346 26.0007 43.3346Z" fill="white"/>
</svg>
