<svg width="45" height="45" viewBox="0 0 45 45" fill="none" xmlns="http://www.w3.org/2000/svg">
<g clip-path="url(#clip0)">
<path d="M38.5714 11.25C35.026 11.25 32.1429 14.1339 32.1429 17.6786C32.1429 18.5661 32.8617 19.2857 33.75 19.2857C34.6384 19.2857 35.3571 18.5661 35.3571 17.6786C35.3571 15.9058 36.7995 14.4643 38.5714 14.4643C40.3434 14.4643 41.7857 15.9058 41.7857 17.6786C41.7857 19.4513 40.3434 20.8929 38.5714 20.8929H1.73431C0.845961 20.8929 0.127167 21.6125 0.127167 22.5C0.127167 23.3875 0.845961 24.1071 1.73431 24.1071H38.5714C42.1169 24.1071 45 21.2232 45 17.6786C45 14.1339 42.1169 11.25 38.5714 11.25Z" fill="white"/>
<path d="M22.5 4.82143C18.9545 4.82143 16.0714 7.70535 16.0714 11.25C16.0714 12.1375 16.7902 12.8571 17.6786 12.8571C18.5669 12.8571 19.2857 12.1375 19.2857 11.25C19.2857 9.47722 20.728 8.03572 22.5 8.03572C24.272 8.03572 25.7143 9.47722 25.7143 11.25C25.7143 13.0228 24.272 14.4643 22.5 14.4643H1.60714C0.718795 14.4643 0 15.1839 0 16.0714C0 16.959 0.718795 17.6786 1.60714 17.6786H22.5C26.0455 17.6786 28.9286 14.7947 28.9286 11.25C28.9286 7.70535 26.0455 4.82143 22.5 4.82143Z" fill="white"/>
<path d="M22.5 27.3214H1.60714C0.718795 27.3214 0 28.041 0 28.9286C0 29.8161 0.718795 30.5357 1.60714 30.5357H22.5C24.272 30.5357 25.7143 31.9772 25.7143 33.75C25.7143 35.5228 24.272 36.9643 22.5 36.9643C20.728 36.9643 19.2857 35.5228 19.2857 33.75C19.2857 32.8625 18.5669 32.1429 17.6786 32.1429C16.7902 32.1429 16.0714 32.8625 16.0714 33.75C16.0714 37.2947 18.9545 40.1786 22.5 40.1786C26.0455 40.1786 28.9286 37.2947 28.9286 33.75C28.9286 30.2054 26.0455 27.3214 22.5 27.3214Z" fill="white"/>
</g>
<defs>
<clipPath id="clip0">
<rect width="45" height="45" fill="white"/>
</clipPath>
</defs>
</svg>
