<svg width="135" height="136" viewBox="0 0 135 136" fill="none" xmlns="http://www.w3.org/2000/svg">
<path d="M67.58 68.14V68.13" stroke="#FFC53D" stroke-width="6.9103" stroke-miterlimit="10" stroke-linecap="round"/>
<path d="M67.58 132.02V118.4" stroke="#FFC53D" stroke-width="6.9103" stroke-miterlimit="10" stroke-linecap="round"/>
<path d="M67.58 17.77V4.15002" stroke="#FFC53D" stroke-width="6.9103" stroke-miterlimit="10" stroke-linecap="round"/>
<path d="M67.58 68.14V68.13" stroke="#FFC53D" stroke-width="6.9103" stroke-miterlimit="10" stroke-linecap="round"/>
<path d="M112.75 113.31L103.11 103.66" stroke="#FFE53D" stroke-width="6.9103" stroke-miterlimit="10" stroke-linecap="round"/>
<path d="M31.95 32.51L22.34 22.89" stroke="#FFE53D" stroke-width="6.9103" stroke-miterlimit="10" stroke-linecap="round"/>
<path d="M131.46 68.13H117.84" stroke="#FFC53D" stroke-width="6.9103" stroke-miterlimit="10" stroke-linecap="round"/>
<path d="M17.22 68.13H3.58997" stroke="#FFC53D" stroke-width="6.9103" stroke-miterlimit="10" stroke-linecap="round"/>
<path d="M112.75 22.96L103.15 32.56" stroke="#FFE53D" stroke-width="6.9103" stroke-miterlimit="10" stroke-linecap="round"/>
<path d="M32 103.71L22.34 113.37" stroke="#FFE53D" stroke-width="6.9103" stroke-miterlimit="10" stroke-linecap="round"/>
<path d="M67.58 68.14V68.13" stroke="#FFC53D" stroke-width="6.9103" stroke-miterlimit="10" stroke-linecap="round"/>
<path d="M67.53 107.52C89.3066 107.52 106.96 89.8666 106.96 68.09C106.96 46.3134 89.3066 28.66 67.53 28.66C45.7534 28.66 28.1 46.3134 28.1 68.09C28.1 89.8666 45.7534 107.52 67.53 107.52Z" fill="url(#paint0_linear)"/>
<defs>
<linearGradient id="paint0_linear" x1="66.3368" y1="28.971" x2="68.7111" y2="106.838" gradientUnits="userSpaceOnUse">
<stop stop-color="#FFE53D"/>
<stop offset="0.3429" stop-color="#FFE03D"/>
<stop offset="0.7652" stop-color="#FFD13D"/>
<stop offset="1" stop-color="#FFC53D"/>
</linearGradient>
</defs>
</svg>
